<?xml version='1.0' encoding='utf-8'?>
<!DOCTYPE svg PUBLIC '-//W3C//DTD SVG 1.1//EN' 'http://www.w3.org/Graphics/SVG/1.1/DTD/svg11.dtd'>
<svg width="64" version="1.1" xmlns="http://www.w3.org/2000/svg" height="64" viewBox="0 0 64 64" xmlns:xlink="http://www.w3.org/1999/xlink" enable-background="new 0 0 64 64">
  <g>
    <path fill="#1D1D1B" d="m63.924,31.031c-0.102-0.246-0.248-0.467-0.434-0.651l-6.838-6.833c-0.783-0.781-2.051-0.781-2.833,0s-0.782,2.049 0,2.83l3.419,3.417-50.318-.002 3.418-3.415c0.781-0.781 0.781-2.049 0-2.83-0.783-0.781-2.051-0.781-2.834,0l-6.839,6.834c-0.392,0.391-0.587,0.902-0.587,1.415s0.195,1.025 0.587,1.416l6.992,6.982c0.392,0.39 0.903,0.585 1.417,0.585 0.512,0 1.024-0.195 1.416-0.586 0.782-0.781 0.782-2.049 0-2.832l-3.57-3.566 50.316,.002-3.57,3.564c-0.781,0.783-0.781,2.051 0,2.832 0.393,0.391 0.904,0.586 1.417,0.586s1.024-0.195 1.417-0.585l6.992-6.982c0.002-0.003 0.004-0.006 0.006-0.009 0.182-0.183 0.326-0.4 0.426-0.643 0.102-0.244 0.154-0.504 0.154-0.765s-0.053-0.52-0.154-0.764z"/>
  </g>
</svg>
