<?xml version="1.0" encoding="utf-8"?>
<svg xmlns="http://www.w3.org/2000/svg" xmlns:xlink="http://www.w3.org/1999/xlink">
  <symbol viewBox="0 0 44 28" id="logo-icon">
    <path d="M48,64c2.99,0,4.987-1.688,6.591-3.156A8.08,8.08,0,0,0,57,54.566a8.184,8.184,0,0,0-2.46-6.211,9.454,9.454,0,0,0-6.8-2.346H37.986v28L42,74V64h6ZM42,50h6c2.013,0,5,.939,5,5a4.783,4.783,0,0,1-5,5H42V50Zm37,8H68V50H82V46H64V74H82V70H68V62H79V58Z" transform="translate(-38 -46)"/>
  </symbol>
  <symbol viewBox="0 0 24 24" id="star-icon">
    <path fill-rule="evenodd"
    d="M23.911,8.947 C23.702,8.329 23.170,7.875 22.528,7.777 L16.283,6.819 L13.569,1.002 C13.283,0.391 12.672,-0.000 12.000,-0.000 C11.328,-0.000 10.717,0.391 10.431,1.002 L7.717,6.819 L1.472,7.777 C0.830,7.875 0.297,8.329 0.090,8.947 C-0.116,9.567 0.040,10.250 0.493,10.716 L5.069,15.432 L4.008,21.975 C3.900,22.634 4.177,23.295 4.719,23.681 C5.017,23.893 5.367,24.000 5.717,24.000 C6.005,24.000 6.294,23.927 6.556,23.782 L12.000,20.756 L17.445,23.782 C17.707,23.927 17.996,24.000 18.283,24.000 C18.633,24.000 18.983,23.893 19.282,23.681 C19.824,23.295 20.099,22.634 19.992,21.975 L18.930,15.432 L23.508,10.716 C23.961,10.250 24.116,9.566 23.911,8.947 ZM17.535,14.163 C17.162,14.547 16.992,15.090 17.078,15.623 L18.111,22.006 L12.815,19.056 C12.561,18.914 12.281,18.843 11.999,18.843 C11.719,18.843 11.438,18.915 11.184,19.056 L5.889,22.006 L6.921,15.623 C7.008,15.090 6.838,14.547 6.465,14.163 L2.014,9.561 L8.087,8.624 C8.642,8.539 9.120,8.179 9.358,7.667 L12.000,1.993 L14.641,7.668 C14.880,8.180 15.357,8.539 15.911,8.625 L21.986,9.562 L17.535,14.163 Z"/>
  </symbol>
  <symbol viewBox="0 0 24 24" id="case-icon">
    <path fill-rule="evenodd"
    d="M22.000,24.000 L2.000,24.000 C0.895,24.000 -0.000,23.104 -0.000,22.000 L-0.000,6.000 C-0.000,4.895 0.895,4.000 2.000,4.000 L7.000,4.000 L7.000,2.000 C7.000,0.895 7.896,0.000 9.000,0.000 L15.000,0.000 C16.105,0.000 17.000,0.895 17.000,2.000 L17.000,4.000 L22.000,4.000 C23.104,4.000 24.000,4.895 24.000,6.000 L24.000,22.000 C24.000,23.104 23.104,24.000 22.000,24.000 ZM15.000,2.000 L9.000,2.000 L9.000,4.000 L15.000,4.000 L15.000,2.000 ZM22.000,15.000 L17.000,15.000 C17.000,16.104 16.105,17.000 15.000,17.000 L9.000,17.000 C7.896,17.000 7.000,16.104 7.000,15.000 L2.000,15.000 L2.000,13.000 L7.000,13.000 C7.000,11.896 7.896,11.000 9.000,11.000 L15.000,11.000 C16.105,11.000 17.000,11.896 17.000,13.000 L22.000,13.000 L22.000,6.000 L2.000,6.000 L2.000,22.000 L22.000,22.000 L22.000,15.000 ZM15.000,14.000 C15.000,13.448 14.552,13.000 14.000,13.000 L10.000,13.000 C9.448,13.000 9.000,13.448 9.000,14.000 C9.000,14.552 9.448,15.000 10.000,15.000 L14.000,15.000 C14.552,15.000 15.000,14.552 15.000,14.000 Z"/>
  </symbol>
  <symbol viewBox="0 0 25 24" id="gear-icon">
    <path fill-rule="evenodd"
    d="M23.918,13.396 C23.831,14.137 23.207,14.696 22.468,14.696 C22.439,14.696 22.410,14.695 22.381,14.693 L22.274,14.690 C21.630,14.694 21.034,15.091 20.787,15.680 C20.523,16.309 20.688,17.042 21.198,17.503 C21.774,18.025 21.843,18.909 21.356,19.514 C20.785,20.225 20.132,20.871 19.415,21.433 C19.152,21.636 18.832,21.746 18.507,21.746 C18.097,21.746 17.701,21.572 17.423,21.269 C17.130,20.947 16.650,20.748 16.170,20.748 C15.970,20.748 15.776,20.785 15.609,20.853 C14.988,21.107 14.587,21.734 14.611,22.413 C14.637,23.179 14.063,23.843 13.303,23.927 C12.868,23.975 12.424,24.000 11.986,24.000 C11.522,24.000 11.057,23.973 10.602,23.920 C9.830,23.831 9.260,23.152 9.306,22.373 C9.345,21.690 8.948,21.052 8.318,20.788 C8.148,20.717 7.951,20.679 7.746,20.679 C7.266,20.679 6.787,20.878 6.497,21.199 C6.217,21.507 5.820,21.683 5.406,21.683 C5.072,21.683 4.745,21.568 4.485,21.358 C3.779,20.791 3.140,20.144 2.586,19.436 C2.113,18.839 2.183,17.964 2.747,17.445 C3.249,16.985 3.414,16.259 3.159,15.637 C2.913,15.038 2.330,14.636 1.709,14.636 L1.651,14.637 C0.964,14.637 0.165,14.138 0.075,13.332 C-0.027,12.421 -0.025,11.503 0.081,10.603 C0.173,9.838 0.802,9.287 1.579,9.305 C2.321,9.301 2.961,8.915 3.211,8.318 C3.475,7.689 3.310,6.957 2.801,6.495 C2.226,5.972 2.157,5.090 2.642,4.486 C3.209,3.778 3.863,3.131 4.584,2.566 C4.843,2.363 5.165,2.253 5.491,2.253 C5.904,2.253 6.300,2.428 6.578,2.733 C6.868,3.052 7.348,3.250 7.830,3.250 C8.030,3.250 8.223,3.214 8.389,3.147 C9.009,2.892 9.411,2.264 9.387,1.584 C9.361,0.820 9.936,0.156 10.695,0.072 C11.587,-0.028 12.500,-0.025 13.395,0.079 C14.169,0.169 14.739,0.848 14.693,1.625 C14.654,2.309 15.051,2.947 15.680,3.212 C15.848,3.282 16.046,3.319 16.251,3.319 C16.733,3.319 17.212,3.121 17.500,2.801 C17.778,2.493 18.176,2.317 18.592,2.317 C18.925,2.317 19.251,2.431 19.510,2.639 C20.210,3.199 20.850,3.846 21.412,4.560 C21.887,5.162 21.815,6.038 21.250,6.555 C20.751,7.013 20.585,7.740 20.840,8.363 C21.089,8.969 21.686,9.362 22.362,9.362 C23.042,9.362 23.833,9.861 23.924,10.666 C24.026,11.577 24.024,12.495 23.918,13.396 ZM21.944,11.073 C20.657,11.033 19.526,10.259 19.042,9.078 C18.561,7.900 18.829,6.539 19.703,5.625 C19.309,5.145 18.873,4.704 18.403,4.310 C17.813,4.874 16.973,5.206 16.113,5.206 C15.692,5.206 15.290,5.127 14.921,4.973 C13.730,4.472 12.958,3.306 12.947,2.026 C12.332,1.968 11.712,1.966 11.098,2.022 C11.060,3.288 10.243,4.224 9.032,4.721 C8.658,4.873 8.347,5.138 7.935,5.138 C7.076,5.138 6.236,4.808 5.645,4.246 C5.160,4.643 4.712,5.085 4.313,5.564 C5.203,6.483 5.470,7.858 4.971,9.048 C4.490,10.195 3.346,10.953 2.028,11.014 C1.967,11.634 1.966,12.265 2.024,12.894 C3.275,12.908 4.438,13.706 4.925,14.889 C5.408,16.066 5.141,17.428 4.265,18.343 C4.656,18.820 5.091,19.261 5.564,19.658 C6.155,19.095 6.995,18.763 7.854,18.763 C8.276,18.763 8.677,18.842 9.047,18.997 C10.236,19.494 11.010,20.661 11.021,21.942 C11.632,22.001 12.254,22.003 12.870,21.947 C12.906,20.682 13.687,19.536 14.864,19.054 C15.229,18.905 15.622,18.830 16.035,18.830 C16.891,18.830 17.731,19.160 18.323,19.722 C18.804,19.329 19.252,18.886 19.656,18.405 C18.764,17.484 18.496,16.110 18.995,14.921 C19.486,13.750 20.667,12.959 21.941,12.947 C22.001,12.327 22.002,11.698 21.944,11.073 ZM12.001,15.999 C9.800,15.999 8.009,14.202 8.009,11.993 C8.009,9.784 9.800,7.987 12.001,7.987 C14.202,7.987 15.993,9.784 15.993,11.993 C15.993,14.202 14.202,15.999 12.001,15.999 ZM12.001,10.007 C10.895,10.007 9.995,10.904 9.995,12.007 C9.995,13.110 10.895,14.007 12.001,14.007 C13.107,14.007 14.006,13.110 14.006,12.007 C14.006,10.904 13.107,10.007 12.001,10.007 Z"/>
  </symbol>
  <symbol viewBox="0 0 22 24" id="bookmark-icon">
    <path fill-rule="evenodd"
    d="M15.000,-0.000 L7.000,-0.000 L5.000,-0.000 C2.332,-0.000 0.565,1.190 -0.000,3.000 L-0.000,3.000 L-0.000,20.000 L0.040,20.000 C0.040,22.627 3.001,24.000 6.172,24.000 L22.000,24.000 L22.000,20.000 L22.000,17.000 L22.000,-0.000 L15.000,-0.000 ZM20.000,22.000 L6.172,22.000 C3.407,22.000 2.000,21.464 2.000,21.000 C2.000,19.885 3.072,19.000 6.000,19.000 L20.000,19.000 L20.000,22.000 ZM6.172,17.000 C4.563,17.000 3.100,17.455 2.000,18.193 L2.000,4.455 L2.053,4.211 C2.062,3.027 3.521,2.036 5.000,2.000 L5.000,10.000 C5.000,10.565 5.166,11.182 5.767,10.817 L7.996,8.699 L10.224,10.817 C10.466,11.047 11.000,11.019 11.000,10.000 L11.000,2.000 L20.000,2.000 L20.000,17.000 L6.172,17.000 Z"/>
  </symbol>
  <symbol viewBox="0 0 60 12" id="arrow-icon">
    <path fill-rule="evenodd"
    d="M53.232,10.314 L56.618,6.971 L1.001,6.971 C0.448,6.971 0.001,6.529 0.001,5.984 C0.001,5.439 0.448,4.997 1.001,4.997 L56.561,4.997 L53.315,1.609 C52.910,1.242 52.910,0.647 53.315,0.279 C53.720,-0.088 54.377,-0.088 54.781,0.279 L59.630,5.234 C59.642,5.244 59.647,5.259 59.659,5.270 C59.677,5.285 59.700,5.291 59.717,5.308 C59.772,5.362 59.802,5.430 59.842,5.493 C59.862,5.525 59.887,5.551 59.904,5.586 C60.081,5.952 60.025,6.400 59.717,6.704 L54.646,11.710 C54.256,12.095 53.623,12.095 53.232,11.710 C52.842,11.324 52.842,10.699 53.232,10.314 Z"/>
  </symbol>
  <symbol viewBox="0 0 607 612" id="topic">
    <style type="text/css">
      .st0{fill-rule:evenodd;clip-rule:evenodd;fill:#F5D581;}
    </style>
    <g>
      <path class="st0" d="M271.2,163.3h114l43.4,47.6c2.7,3,6.5,4.6,10.4,4.6c1.7,0,3.4-0.3,5.1-1c5.4-2.1,9-7.3,9-13.1V44.8
          c0-24.7-20.1-44.8-44.8-44.8H271.2c-24.7,0-44.8,20.1-44.8,44.8v73.7C226.4,143.2,246.5,163.3,271.2,163.3z M254.6,44.8
          c0-9.1,7.4-16.6,16.6-16.6h137.2c9.1,0,16.6,7.4,16.6,16.6V165l-23.1-25.3c-2.7-2.9-6.5-4.6-10.4-4.6H271.2
          c-9.1,0-16.6-7.4-16.6-16.6V44.8z M325.6,82.3h58.2c7.8,0,14.1-6.3,14.1-14.1c0-7.8-6.3-14.1-14.1-14.1h-58.2
          c-7.8,0-14.1,6.3-14.1,14.1C311.4,76,317.8,82.3,325.6,82.3z M97.8,242.7c2.2,1.3,4.7,1.9,7.1,1.9c2.4,0,4.8-0.6,6.9-1.8
          L149,222h118.7c7.8,0,14.1-6.3,14.1-14.1c0-7.8-6.3-14.1-14.1-14.1H145.4c-2.4,0-4.8,0.6-6.9,1.8L119,206.5v-103
          c0-9.1,7.4-16.6,16.6-16.6h50c7.8,0,14.1-6.3,14.1-14.1c0-7.8-6.3-14.1-14.1-14.1h-50c-24.7,0-44.8,20.1-44.8,44.8v127
          C90.8,235.6,93.5,240.2,97.8,242.7z M439,247.3c-39.9,0-72.4,32.5-72.4,72.4c0,39.9,32.5,72.4,72.4,72.4
          c39.9,0,72.4-32.5,72.4-72.4c0-34.8-24.7-64-57.6-70.9c-0.3-0.1-0.6-0.1-0.9-0.2C448.5,247.7,443.8,247.3,439,247.3z
           M456.6,279.1c15.7,6.8,26.7,22.4,26.7,40.6c0,24.4-19.8,44.2-44.2,44.2c-24.4,0-44.2-19.8-44.2-44.2c0-15.1,7.6-28.4,19.2-36.4
          c-0.5,3.1,0,6.3,1.6,9.2c3.8,6.8,12.4,9.2,19.2,5.4C443.3,293.1,450.7,286.7,456.6,279.1z M166.9,252.3L166.9,252.3
          c-0.1,0-0.1,0-0.2,0c0,0-0.1,0-0.1,0c0,0-0.1,0-0.1,0h-0.2c0,0,0,0,0,0h-0.1c0,0,0,0-0.1,0c-0.9,0-1.8,0-2.6,0.1
          c-0.1,0-0.1,0-0.2,0c0,0,0,0-0.1,0c0,0-0.1,0-0.1,0c0,0-0.1,0-0.1,0c0,0,0,0-0.1,0c0,0,0,0-0.1,0c0,0-0.1,0-0.1,0
          c0,0-0.1,0-0.1,0c-0.1,0-0.1,0-0.2,0c-0.1,0-0.2,0-0.2,0l0,0c-0.2,0-0.5,0-0.7,0c-0.1,0-0.1,0-0.2,0c0,0,0,0-0.1,0
          c0,0-0.1,0-0.1,0c0,0,0,0-0.1,0c0,0-0.1,0-0.1,0c0,0,0,0-0.1,0c0,0,0,0-0.1,0h0c-4.9,0.4-9.7,1.2-14.5,2.5
          c-0.1,0-0.3,0.1-0.4,0.1c-29.7,8.7-51.5,36.2-51.5,68.7c0,39.4,32.1,71.5,71.6,71.5c39.5,0,71.6-32.1,71.6-71.5
          c0-4-0.3-8-1-11.9C231.2,277.8,201.9,252.5,166.9,252.3z M205.8,306.1c-16.9-0.7-31.3-10.9-37.8-25.6
          C184.9,281.2,199.3,291.5,205.8,306.1z M166.3,367.1c-23.9,0-43.4-19.4-43.4-43.3c0-14.4,7.1-27.2,18-35.1
          c10.4,27.2,36.8,45.9,67.4,45.7C203.6,353.2,186.5,367.1,166.3,367.1z M503.1,479.5c-7.8,0-14.1,6.3-14.1,14.1v1.8
          c0,7.8,6.3,14.1,14.1,14.1c7.8,0,14.1-6.3,14.1-14.1v-1.8C517.2,485.8,510.9,479.5,503.1,479.5z M182.8,112h-25.6
          c-7.8,0-14.1,6.3-14.1,14.1c0,7.8,6.3,14.1,14.1,14.1h25.6c7.8,0,14.1-6.3,14.1-14.1C197,118.4,190.6,112,182.8,112z
           M606.1,592.8l-35.2-88.1c-15.5-38.2-43-88.6-103.5-91.1c-0.5-0.1-1.1-0.1-1.6-0.1h-53.4c-0.5,0-1.1,0-1.6,0.1
          c-60.5,2.5-88,52.9-103.5,91.1l-35.7,88c-2.9,7.2,0.5,15.4,7.8,18.4c7.2,2.9,15.4-0.5,18.4-7.8l35.7-88
          c18.1-44.6,38.9-67.1,67.8-72.3l7.4,35.1l-10.2,91.5c-0.5,4.8,1.4,9.5,5.2,12.5l22.7,18.2c2.5,2,5.6,3.1,8.8,3.1h8.1
          c3.2,0,6.3-1.1,8.8-3.1l22.7-18.2c3.8-3,5.7-7.8,5.2-12.5L469.6,478l7.4-35.1c28.9,5.3,49.7,27.7,67.8,72.3l35.2,88
          c2.2,5.5,7.5,8.9,13.1,8.9c1.7,0,3.5-0.3,5.2-1C605.5,608.2,609,600,606.1,592.8z M448.4,441.7l-4.5,21.5h-9.7l-4.5-21.5H448.4z
           M439,574.4l-11.9-9.5l8.2-73.5h7.4l8.2,73.5L439,574.4z M281.7,498.3c6.5-4.3,8.3-13,4-19.5c-0.6-0.9-2.4-3.4-9.1-12.5
          c-1.9-2.6-3.5-4.8-3.9-5.3c-21.2-29.8-49.1-44.8-83-44.8h-46.7c-63,0-91.1,51.3-106.8,90L0.9,592.7c-2.9,7.2,0.5,15.4,7.8,18.4
          c1.7,0.7,3.5,1,5.3,1c5.6,0,10.8-3.3,13.1-8.8l35.2-86.7c15-37,31.9-58.6,54-67.5l38.6,52.9c2.7,3.6,6.9,5.8,11.4,5.8
          c4.5,0,8.7-2.2,11.4-5.8l38.6-52.9c12.7,5.1,23.6,14.4,33.4,28.1c0.3,0.5,2.1,2.8,4.2,5.7c2.7,3.6,7.6,10.4,8.4,11.5
          C266.5,500.8,275.2,502.5,281.7,498.3z M166.3,469.8l-18.7-25.6h37.3L166.3,469.8z M223.1,583.9h-150c-7.8,0-14.1,6.3-14.1,14.1
          s6.3,14.1,14.1,14.1h150c7.8,0,14.1-6.3,14.1-14.1S230.9,583.9,223.1,583.9z"/>
      </g>
  </symbol>
  <symbol viewBox="0 0 129 129" id="dropdown">
    <g>
      <path d="m121.3,34.6c-1.6-1.6-4.2-1.6-5.8,0l-51,51.1-51.1-51.1c-1.6-1.6-4.2-1.6-5.8,0-1.6,1.6-1.6,4.2 0,5.8l53.9,53.9c0.8,0.8 1.8,1.2 2.9,1.2 1,0 2.1-0.4 2.9-1.2l53.9-53.9c1.7-1.6 1.7-4.2 0.1-5.8z"/>
    </g>
  </symbol>
  <symbol viewBox="0 0 511.962 511.962"  id="vk">
    <g>
    <path d="M507.399,370.471c-1.376-2.304-9.888-20.8-50.848-58.816c-42.88-39.808-37.12-33.344,14.528-102.176
      c31.456-41.92,44.032-67.52,40.096-78.464c-3.744-10.432-26.88-7.68-26.88-7.68l-76.928,0.448c0,0-5.696-0.768-9.952,1.76
      c-4.128,2.496-6.784,8.256-6.784,8.256s-12.192,32.448-28.448,60.032c-34.272,58.208-48,61.28-53.6,57.664
      c-13.024-8.416-9.76-33.856-9.76-51.904c0-56.416,8.544-79.936-16.672-86.016c-8.384-2.016-14.528-3.36-35.936-3.584
      c-27.456-0.288-50.72,0.096-63.872,6.528c-8.768,4.288-15.52,13.856-11.392,14.4c5.088,0.672,16.608,3.104,22.72,11.424
      c7.904,10.72,7.616,34.848,7.616,34.848s4.544,66.4-10.592,74.656c-10.4,5.664-24.64-5.888-55.2-58.72
      c-15.648-27.04-27.488-56.96-27.488-56.96s-2.272-5.568-6.336-8.544c-4.928-3.616-11.84-4.768-11.84-4.768l-73.152,0.448
      c0,0-10.976,0.32-15.008,5.088c-3.584,4.256-0.288,13.024-0.288,13.024s57.28,133.984,122.112,201.536
      c59.488,61.92,127.008,57.856,127.008,57.856h30.592c0,0,9.248-1.024,13.952-6.112c4.352-4.672,4.192-13.44,4.192-13.44
      s-0.608-41.056,18.464-47.104c18.784-5.952,42.912,39.68,68.48,57.248c19.328,13.28,34.016,10.368,34.016,10.368l68.384-0.96
      C488.583,400.807,524.359,398.599,507.399,370.471z"/>
  </g>
  </symbol>
  <symbol id="facebook" viewBox="0 0 512 512">
    <g>
    <path d="M288,176v-64c0-17.664,14.336-32,32-32h32V0h-64c-53.024,0-96,42.976-96,96v80h-64v80h64v256h96V256h64l32-80H288z"/>
  </g>
  </symbol>
  <symbol viewBox="0 -31 512 512" id="telegram">
    <g>
      <path d="m123.195312 260.738281 63.679688 159.1875 82.902344-82.902343 142.140625 112.976562 100.082031-450-512 213.265625zm242.5-131.628906-156.714843 142.941406-19.519531 73.566407-36.058594-90.164063zm0 0"/>
    </g>
  </symbol>
  <symbol viewBox="0 0 512 512" id="instagram">
    <g>
  <g>
    <path d="M352,0H160C71.648,0,0,71.648,0,160v192c0,88.352,71.648,160,160,160h192c88.352,0,160-71.648,160-160V160
      C512,71.648,440.352,0,352,0z M464,352c0,61.76-50.24,112-112,112H160c-61.76,0-112-50.24-112-112V160C48,98.24,98.24,48,160,48
      h192c61.76,0,112,50.24,112,112V352z"/>
  </g>
</g>
<g>
  <g>
    <path d="M256,128c-70.688,0-128,57.312-128,128s57.312,128,128,128s128-57.312,128-128S326.688,128,256,128z M256,336
      c-44.096,0-80-35.904-80-80c0-44.128,35.904-80,80-80s80,35.872,80,80C336,300.096,300.096,336,256,336z"/>
  </g>
</g>
<g>
  <g>
    <circle cx="393.6" cy="118.4" r="17.056"/>
  </g>
</g>
  </symbol>
  <symbol viewBox="0 0 14 14" id="email">
    <g>
  <g>
    <path d="M7,9L5.268,7.484l-4.952,4.245C0.496,11.896,0.739,12,1.007,12h11.986
      c0.267,0,0.509-0.104,0.688-0.271L8.732,7.484L7,9z"/>
    <path d="M13.684,2.271C13.504,2.103,13.262,2,12.993,2H1.007C0.74,2,0.498,2.104,0.318,2.273L7,8
      L13.684,2.271z"/>
    <polygon points="0,2.878 0,11.186 4.833,7.079     "/>
    <polygon points="9.167,7.079 14,11.186 14,2.875     "/>
  </g>
</g>
  </symbol>
  <symbol viewbox="0 0 30 24" id="users">
    <g>
      <g>
        <path class="st0" d="M23,14c2.8,0,5-2.2,5-5c0-2.8-2.2-5-5-5s-5,2.2-5,5C18,11.8,20.2,14,23,14z M23,6c1.7,0,3,1.3,3,3
          c0,1.7-1.3,3-3,3c-1.7,0-3-1.3-3-3C20,7.3,21.3,6,23,6z M9,12c3.3,0,6-2.7,6-6c0-3.3-2.7-6-6-6C5.7,0,3,2.7,3,6
          C3,9.3,5.7,12,9,12z M9,2c2.2,0,4,1.8,4,4s-1.8,4-4,4S5,8.2,5,6S6.8,2,9,2z M9,14c-5.6,0-8.2,4.6-8.8,10h2c0.5-4.3,2.3-8,6.8-8
          c2.7,0,4.4,1.3,5.5,3.3c0.3-0.6,0.8-1.2,1.3-1.7C14.3,15.4,12.1,14,9,14z M23,16c-4.4,0-6.4,3.7-6.9,8h2c0.4-3.3,1.7-6,4.9-6
          c3.2,0,4.5,2.7,4.9,6h2C29.4,19.7,27.4,16,23,16z"/>
      </g>
    </g>
  </symbol>
  <symbol viewbox="0 0 28 24" id="monitor">
    <g>
      <g>
        <path class="st0" d="M25,0H3C1.3,0,0,1.3,0,3v12c0,1.7,1.3,3,3,3h10v4h-3c-0.6,0-1,0.4-1,1c0,0.6,0.4,1,1,1h8c0.6,0,1-0.4,1-1
          c0-0.6-0.4-1-1-1h-3v-4h10c1.7,0,3-1.3,3-3V3C28,1.3,26.7,0,25,0z M26,15c0,0.6-0.4,1-1,1H3c-0.6,0-1-0.4-1-1V3c0-0.6,0.4-1,1-1
          h22c0.6,0,1,0.4,1,1V15z"/>
      </g>
    </g>
  </symbol>
  <symbol viewbox="0 0 24 24" id="it">
    <g>
      <g>
        <path class="st0" d="M16,8H8v8h8V8z M14,14h-4v-4h4V14z M24,10V8h-3V5c0-1.5-0.5-2-2-2h-3V0h-2v3h-4V0H8v3H5C3.5,3,3,3.5,3,5v3
          H0v2h3v4H0v2h3v3c0,1.5,0.5,2,2,2h3v3h2v-3h4v3h2v-3h3c1.5,0,2-0.5,2-2v-3h3v-2h-3v-4H24z M19,19H5V5h14V19z"/>
      </g>
    </g>
  </symbol>
  <symbol viewbox="0 0 24 24" id="case">
    <g>
      <g>
        <path class="st0" d="M22,4h-5V2c0-1.1-0.9-2-2-2H9C7.9,0,7,0.9,7,2v2H2C0.9,4,0,4.9,0,6v16c0,1.1,0.9,2,2,2h20c1.1,0,2-0.9,2-2
          V6C24,4.9,23.1,4,22,4z M9,2h6v2H9V2z M22,13h-5c0-1.1-0.9-2-2-2H9c-1.1,0-2,0.9-2,2H2v2h5c0,1.1,0.9,2,2,2h6c1.1,0,2-0.9,2-2h5
          v7H2V6h20V13z M15,14c0,0.6-0.4,1-1,1h-4c-0.6,0-1-0.4-1-1c0-0.6,0.4-1,1-1h4C14.6,13,15,13.4,15,14z"/>
      </g>
    </g>
  </symbol>
</svg>